<!DOCTYPE svg PUBLIC "-//W3C//DTD SVG 1.1//EN" "http://www.w3.org/Graphics/SVG/1.1/DTD/svg11.dtd">
<!-- Uploaded to: SVG Repo, www.svgrepo.com, Transformed by: SVG Repo Mixer Tools -->
<svg fill="#AD46FF" height="64px" width="64px" version="1.1" id="Capa_1" xmlns="http://www.w3.org/2000/svg" xmlns:xlink="http://www.w3.org/1999/xlink" viewBox="0 0 297 297" xml:space="preserve">
<g id="SVGRepo_bgCarrier" stroke-width="0"/>
<g id="SVGRepo_tracerCarrier" stroke-linecap="round" stroke-linejoin="round"/>
<g id="SVGRepo_iconCarrier"> <path d="M235.063,121.188c-5.131,0-10.114,0.638-14.885,1.82l-21.887-51.07h36.772c4.032,0,7.313,3.28,7.313,7.313 s-3.28,7.313-7.313,7.313c-5.522,0-10,4.478-10,10s4.478,10,10,10c15.061,0,27.313-12.252,27.313-27.313 s-12.252-27.313-27.313-27.313h-51.938c-3.361,0-6.498,1.688-8.349,4.495s-2.167,6.354-0.843,9.444l8.865,20.686H89.25V71.938 h24.625c5.522,0,10-4.478,10-10s-4.478-10-10-10H61.938c-5.522,0-10,4.478-10,10s4.478,10,10,10h7.313v30.674l-3.514,18.704 c-1.258-0.076-2.522-0.128-3.798-0.128C27.785,121.188,0,148.973,0,183.125s27.785,61.938,61.938,61.938 c30.747,0,56.322-22.525,61.119-51.938h18.571l7.505,19.552c1.526,3.978,5.317,6.42,9.338,6.42c1.191,0,2.403-0.215,3.581-0.667 c5.156-1.979,7.732-7.764,5.753-12.919l-8.537-22.241l31.972-77.014l10.568,24.657c-17.227,11.011-28.682,30.293-28.682,52.211 c0,34.152,27.785,61.938,61.938,61.938S297,217.277,297,183.125S269.215,121.188,235.063,121.188z M61.938,225.063 C38.813,225.063,20,206.249,20,183.125s18.813-41.938,41.938-41.938c0.021,0,0.043,0.001,0.064,0.002l-7.532,40.089 c-0.55,2.925,0.232,5.941,2.132,8.231s4.721,3.615,7.696,3.615h38.363C98.163,211.435,81.615,225.063,61.938,225.063z M81.445,146.018c10.469,5.526,18.328,15.348,21.216,27.107H76.352L81.445,146.018z M141.824,173.125h-18.768 c-3.51-21.526-18.151-39.351-37.805-47.367l3.606-19.195h80.601L141.824,173.125z M235.063,225.063 c-23.124,0-41.938-18.813-41.938-41.938c0-13.661,6.569-25.814,16.711-33.476l16.035,37.416c1.625,3.792,5.316,6.063,9.196,6.063 c1.313,0,2.65-0.261,3.935-0.812c5.076-2.176,7.428-8.055,5.252-13.131l-16.041-37.429c2.23-0.368,4.517-0.569,6.85-0.569 c23.124,0,41.938,18.813,41.938,41.938S258.187,225.063,235.063,225.063z"/> </g>
</svg>