<?xml version="1.0" encoding="utf-8"?>
<!-- Generator: Adobe Illustrator 27.5.0, SVG Export Plug-In . SVG Version: 6.00 Build 0)  -->
<svg version="1.1" xmlns="http://www.w3.org/2000/svg" xmlns:xlink="http://www.w3.org/1999/xlink" x="0px" y="0px"
	 viewBox="0 0 750 500" style="enable-background:new 0 0 750 500;" xml:space="preserve">
<g id="BACKGROUND">
	<rect style="fill:#FFFFFF;" width="750" height="500"/>
</g>
<g id="OBJECTS">
	<g>
		<g>
			<defs>
				<rect id="SVGID_1_" width="750" height="500"/>
			</defs>
			<clipPath id="SVGID_00000011740305079520017290000010847047660968512952_">
				<use xlink:href="#SVGID_1_"  style="overflow:visible;"/>
			</clipPath>
			
				<ellipse transform="matrix(0.6076 -0.7943 0.7943 0.6076 -327.5996 238.4265)" style="clip-path:url(#SVGID_00000011740305079520017290000010847047660968512952_);fill:#F0DEFF;" cx="77.478" cy="450.73" rx="144.669" ry="132.175"/>
			
				<ellipse transform="matrix(0.6076 -0.7943 0.7943 0.6076 234.6755 458.7576)" style="clip-path:url(#SVGID_00000011740305079520017290000010847047660968512952_);fill:#F0DEFF;" cx="581.582" cy="-8.103" rx="200.347" ry="183.046"/>
		</g>
		<g>
			<polygon style="fill:#FF692D;" points="258.658,43.306 251.297,56.055 266.018,56.055 			"/>
			<polygon style="fill:#FFCD01;" points="100.299,328.142 92.938,340.891 107.659,340.891 			"/>
			<polygon style="fill:#546CFF;" points="495.815,104.482 503.176,91.733 488.455,91.733 			"/>
			<path style="fill:#FF692D;" d="M60.379,267.009l-4.019-3.299c1.234-1.504,1.737-3.721,1.346-5.93
				c-0.392-2.209-1.626-4.118-3.302-5.105l2.641-4.48c3.011,1.775,5.119,4.938,5.781,8.677
				C63.489,260.612,62.597,264.307,60.379,267.009z"/>
			<path style="fill:#546CFF;" d="M12.803,478.872c-0.994-3.351-0.38-7.102,1.684-10.291c2.064-3.188,5.234-5.284,8.699-5.75
				l0.693,5.153c-1.929,0.259-3.808,1.538-5.027,3.422c-1.219,1.883-1.617,4.121-1.064,5.986L12.803,478.872z"/>
			<path style="fill:#FFCD01;" d="M192.042,167.967c-0.973,0-1.939-0.121-2.878-0.367l1.316-5.03
				c1.881,0.492,4.106,0.023,5.95-1.256c1.843-1.279,3.061-3.198,3.258-5.133l5.173,0.526c-0.354,3.478-2.346,6.714-5.466,8.879
				C197.141,167.15,194.57,167.967,192.042,167.967z"/>
			<path style="fill:#FFCD01;" d="M515.188,35.181c-2.137,0-4.32-0.565-6.337-1.677c-3.325-1.834-5.64-4.849-6.348-8.272
				l5.092-1.054c0.395,1.905,1.803,3.689,3.768,4.772c1.965,1.083,4.227,1.322,6.047,0.639l1.826,4.869
				C517.945,34.942,516.576,35.181,515.188,35.181z"/>
			<path style="fill:#546CFF;" d="M408.907,194.126l-3.629-3.725c1.394-1.357,2.14-3.505,1.996-5.744
				c-0.145-2.239-1.159-4.273-2.715-5.441l3.121-4.158c2.796,2.098,4.539,5.476,4.782,9.266
				C412.707,188.114,411.411,191.686,408.907,194.126z"/>
			<path style="fill:#FF692D;" d="M428.008,47.629c-0.655-3.434,0.328-7.105,2.698-10.072c2.37-2.968,5.733-4.738,9.227-4.857
				l0.178,5.197c-1.944,0.066-3.941,1.152-5.342,2.905c-1.399,1.753-2.018,3.94-1.653,5.852L428.008,47.629z"/>
		</g>
	</g>
	<g>
		<defs>
			<rect id="SVGID_00000133524260451388285160000009528086886593222810_" x="348.882" width="401.118" height="500"/>
		</defs>
		<clipPath id="SVGID_00000182496278048498331790000017226896131050309775_">
			<use xlink:href="#SVGID_00000133524260451388285160000009528086886593222810_"  style="overflow:visible;"/>
		</clipPath>
		<g style="clip-path:url(#SVGID_00000182496278048498331790000017226896131050309775_);">
			<rect x="483.156" y="439.091" style="fill:#D7A4FE;" width="101.476" height="127.458"/>
			<g>
				<rect x="548.384" y="457.922" style="fill:#FFCD01;" width="83.467" height="127.458"/>
				
					<line style="fill:none;stroke:#1D1141;stroke-width:1.5;stroke-linecap:round;stroke-linejoin:round;stroke-miterlimit:10;" x1="570.353" y1="457.998" x2="570.353" y2="517.353"/>
				
					<line style="fill:none;stroke:#1D1141;stroke-width:1.5;stroke-linecap:round;stroke-linejoin:round;stroke-miterlimit:10;" x1="570.353" y1="489.471" x2="548.384" y2="489.471"/>
			</g>
			<g>
				<rect x="610.925" y="436.663" style="fill:#FF692D;" width="101.124" height="148.717"/>
				
					<line style="fill:none;stroke:#1D1141;stroke-width:1.5;stroke-linecap:round;stroke-linejoin:round;stroke-miterlimit:10;" x1="635.647" y1="440.059" x2="635.647" y2="508.177"/>
				
					<rect x="619.412" y="452.294" style="fill:none;stroke:#1D1141;stroke-width:1.5;stroke-linecap:round;stroke-linejoin:round;stroke-miterlimit:10;" width="7.927" height="7.927"/>
			</g>
			<g>
				<rect x="679.712" y="436.663" style="fill:#D7A4FE;" width="101.124" height="148.717"/>
				
					<line style="fill:none;stroke:#1D1141;stroke-width:1.5;stroke-linecap:round;stroke-linejoin:round;stroke-miterlimit:10;" x1="721.924" y1="444.471" x2="721.924" y2="513.647"/>
				
					<rect x="695.294" y="460.529" style="fill:none;stroke:#1D1141;stroke-width:1.5;stroke-linecap:round;stroke-linejoin:round;stroke-miterlimit:10;" width="10.412" height="51.37"/>
			</g>
		</g>
		<g style="clip-path:url(#SVGID_00000182496278048498331790000017226896131050309775_);">
			<g>
				<g>
					<rect x="667.209" y="344.804" style="fill:#FFCD01;" width="65.318" height="90.53"/>
					
						<line style="fill:none;stroke:#1D1141;stroke-width:1.5;stroke-linecap:round;stroke-linejoin:round;stroke-miterlimit:10;" x1="678.882" y1="346" x2="678.882" y2="435.349"/>
				</g>
				<g>
					<rect x="686.537" y="359.414" style="fill:#A77456;" width="65.318" height="75.92"/>
					
						<line style="fill:none;stroke:#1D1141;stroke-width:1.5;stroke-linecap:round;stroke-linejoin:round;stroke-miterlimit:10;" x1="706.941" y1="360.294" x2="706.941" y2="435.349"/>
					
						<line style="fill:none;stroke:#1D1141;stroke-width:1.5;stroke-linecap:round;stroke-linejoin:round;stroke-miterlimit:10;" x1="687.013" y1="368.412" x2="706.941" y2="368.412"/>
					
						<line style="fill:none;stroke:#1D1141;stroke-width:1.5;stroke-linecap:round;stroke-linejoin:round;stroke-miterlimit:10;" x1="687.013" y1="376" x2="706.941" y2="376"/>
				</g>
				<g>
					<rect x="721.924" y="344.804" style="fill:#FF692D;" width="35.958" height="88.339"/>
					
						<line style="fill:none;stroke:#1D1141;stroke-width:1.5;stroke-linecap:round;stroke-linejoin:round;stroke-miterlimit:10;" x1="736.588" y1="345.294" x2="736.588" y2="429.94"/>
				</g>
				<g>
					<polygon style="fill:#546CFF;" points="515.182,429.94 584.78,429.94 596.94,362.372 527.342,362.372 					"/>
					
						<line style="fill:none;stroke:#1D1141;stroke-width:1.5;stroke-linecap:round;stroke-linejoin:round;stroke-miterlimit:10;" x1="537.342" y1="362.372" x2="525.182" y2="429.94"/>
					
						<line style="fill:none;stroke:#1D1141;stroke-width:1.5;stroke-linecap:round;stroke-linejoin:round;stroke-miterlimit:10;" x1="517.297" y1="418.188" x2="527.282" y2="418.188"/>
					
						<line style="fill:none;stroke:#1D1141;stroke-width:1.5;stroke-linecap:round;stroke-linejoin:round;stroke-miterlimit:10;" x1="519.517" y1="405.853" x2="529.421" y2="405.853"/>
				</g>
				<g>
					<rect x="543.406" y="342.724" style="fill:#D7A4FE;" width="78.466" height="92.61"/>
					
						<line style="fill:none;stroke:#1D1141;stroke-width:1.5;stroke-linecap:round;stroke-linejoin:round;stroke-miterlimit:10;" x1="559.235" y1="347.059" x2="559.235" y2="429.94"/>
				</g>
				<g>
					<rect x="568.704" y="359.414" style="fill:#FF692D;" width="65.318" height="75.92"/>
					
						<line style="fill:none;stroke:#1D1141;stroke-width:1.5;stroke-linecap:round;stroke-linejoin:round;stroke-miterlimit:10;" x1="595.588" y1="359.414" x2="595.588" y2="429.94"/>
					
						<rect x="578.294" y="384.471" style="fill:none;stroke:#1D1141;stroke-width:1.5;stroke-linecap:round;stroke-linejoin:round;stroke-miterlimit:10;" width="7.588" height="35.647"/>
				</g>
			</g>
			<rect x="500.548" y="427.349" style="fill:#546CFF;" width="254.284" height="16"/>
		</g>
		<g style="clip-path:url(#SVGID_00000182496278048498331790000017226896131050309775_);">
			<g>
				<g>
					<rect x="556.061" y="271.038" style="fill:#FF692D;" width="69.598" height="67.569"/>
					
						<line style="fill:none;stroke:#1D1141;stroke-width:1.5;stroke-linecap:round;stroke-linejoin:round;stroke-miterlimit:10;" x1="567.177" y1="285.397" x2="567.177" y2="334.66"/>
					
						<line style="fill:none;stroke:#1D1141;stroke-width:1.5;stroke-linecap:round;stroke-linejoin:round;stroke-miterlimit:10;" x1="556.061" y1="315.647" x2="567.177" y2="315.647"/>
					
						<line style="fill:none;stroke:#1D1141;stroke-width:1.5;stroke-linecap:round;stroke-linejoin:round;stroke-miterlimit:10;" x1="556.061" y1="322.592" x2="567.177" y2="322.592"/>
				</g>
				<g>
					<rect x="573.574" y="271.038" style="fill:#546CFF;" width="69.598" height="67.569"/>
					
						<line style="fill:none;stroke:#1D1141;stroke-width:1.5;stroke-linecap:round;stroke-linejoin:round;stroke-miterlimit:10;" x1="589.412" y1="273.017" x2="589.412" y2="337"/>
				</g>
				<g>
					<rect x="594.738" y="245.997" style="fill:#D7A4FE;" width="78.466" height="92.61"/>
					
						<line style="fill:none;stroke:#1D1141;stroke-width:1.5;stroke-linecap:round;stroke-linejoin:round;stroke-miterlimit:10;" x1="614.471" y1="248.202" x2="614.471" y2="337"/>
					
						<line style="fill:none;stroke:#1D1141;stroke-width:1.5;stroke-linecap:round;stroke-linejoin:round;stroke-miterlimit:10;" x1="594.738" y1="278.059" x2="614.471" y2="278.059"/>
				</g>
				<g>
					<polygon style="fill:#546CFF;" points="626.161,338.607 689.544,338.607 703.247,273.825 639.865,273.825 					"/>
					
						<line style="fill:none;stroke:#1D1141;stroke-width:1.5;stroke-linecap:round;stroke-linejoin:round;stroke-miterlimit:10;" x1="649.865" y1="273.825" x2="635.659" y2="338.607"/>
				</g>
				<g>
					<rect x="664.947" y="245.165" style="fill:#FF692D;" width="63.383" height="93.442"/>
					
						<line style="fill:none;stroke:#1D1141;stroke-width:1.5;stroke-linecap:round;stroke-linejoin:round;stroke-miterlimit:10;" x1="680.814" y1="248.202" x2="680.814" y2="334.66"/>
					
						<line style="fill:none;stroke:#1D1141;stroke-width:1.5;stroke-linecap:round;stroke-linejoin:round;stroke-miterlimit:10;" x1="664.947" y1="260.38" x2="680.814" y2="260.38"/>
					
						<line style="fill:none;stroke:#1D1141;stroke-width:1.5;stroke-linecap:round;stroke-linejoin:round;stroke-miterlimit:10;" x1="664.947" y1="266.941" x2="680.814" y2="266.941"/>
				</g>
				<g>
					<rect x="690.699" y="266.115" style="fill:#D7A4FE;" width="63.383" height="72.491"/>
					
						<line style="fill:none;stroke:#1D1141;stroke-width:1.5;stroke-linecap:round;stroke-linejoin:round;stroke-miterlimit:10;" x1="702.529" y1="266.941" x2="702.529" y2="335.471"/>
				</g>
				<g>
					<rect x="712.049" y="285.039" style="fill:#FFCD01;" width="43.948" height="53.567"/>
					
						<line style="fill:none;stroke:#1D1141;stroke-width:1.5;stroke-linecap:round;stroke-linejoin:round;stroke-miterlimit:10;" x1="732.527" y1="286" x2="732.527" y2="332.665"/>
					
						<rect x="720" y="292.302" style="fill:none;stroke:#1D1141;stroke-width:1.5;stroke-linecap:round;stroke-linejoin:round;stroke-miterlimit:10;" width="4.059" height="20.875"/>
				</g>
			</g>
			<rect x="500.548" y="332.665" style="fill:#546CFF;" width="254.284" height="16"/>
		</g>
		<g style="clip-path:url(#SVGID_00000182496278048498331790000017226896131050309775_);">
			<g>
				<g>
					<rect x="676.925" y="156.424" style="fill:#D7A4FE;" width="58.138" height="83.835"/>
					
						<line style="fill:none;stroke:#1D1141;stroke-width:1.5;stroke-linecap:round;stroke-linejoin:round;stroke-miterlimit:10;" x1="690.699" y1="159.465" x2="690.699" y2="239.706"/>
					
						<line style="fill:none;stroke:#1D1141;stroke-width:1.5;stroke-linecap:round;stroke-linejoin:round;stroke-miterlimit:10;" x1="676.925" y1="201.678" x2="690.699" y2="201.678"/>
					
						<line style="fill:none;stroke:#1D1141;stroke-width:1.5;stroke-linecap:round;stroke-linejoin:round;stroke-miterlimit:10;" x1="676.925" y1="212.564" x2="690.699" y2="212.564"/>
				</g>
				<g>
					<polygon style="fill:#FF692D;" points="715.383,240.259 773.203,240.259 765.375,173.332 707.555,173.332 					"/>
					
						<line style="fill:none;stroke:#1D1141;stroke-width:1.5;stroke-linecap:round;stroke-linejoin:round;stroke-miterlimit:10;" x1="721.555" y1="173.332" x2="729.383" y2="240.259"/>
					
						<line style="fill:none;stroke:#1D1141;stroke-width:1.5;stroke-linecap:round;stroke-linejoin:round;stroke-miterlimit:10;" x1="708.92" y1="185.005" x2="722.92" y2="185.005"/>
				</g>
				<g>
					<rect x="558.399" y="167.235" style="fill:#FFCD01;" width="58.138" height="73.023"/>
					
						<line style="fill:none;stroke:#1D1141;stroke-width:1.5;stroke-linecap:round;stroke-linejoin:round;stroke-miterlimit:10;" x1="573.513" y1="166.059" x2="573.513" y2="229.588"/>
					
						<line style="fill:none;stroke:#1D1141;stroke-width:1.5;stroke-linecap:round;stroke-linejoin:round;stroke-miterlimit:10;" x1="558.399" y1="203.747" x2="573.513" y2="203.747"/>
				</g>
				<g>
					<rect x="575.885" y="151.92" style="fill:#FF692D;" width="58.138" height="88.339"/>
					
						<line style="fill:none;stroke:#1D1141;stroke-width:1.5;stroke-linecap:round;stroke-linejoin:round;stroke-miterlimit:10;" x1="588.14" y1="156.985" x2="588.14" y2="238.294"/>
					
						<line style="fill:none;stroke:#1D1141;stroke-width:1.5;stroke-linecap:round;stroke-linejoin:round;stroke-miterlimit:10;" x1="575.885" y1="173.332" x2="588.14" y2="173.332"/>
				</g>
				<g>
					<polygon style="fill:#A77456;" points="606.06,240.259 664.198,240.259 651.18,151.92 593.042,151.92 					"/>
					
						<line style="fill:none;stroke:#1D1141;stroke-width:1.5;stroke-linecap:round;stroke-linejoin:round;stroke-miterlimit:10;" x1="616.06" y1="240.259" x2="603.042" y2="151.92"/>
				</g>
			</g>
			<rect x="534.473" y="237.982" style="fill:#546CFF;" width="254.284" height="16"/>
		</g>
		<g style="clip-path:url(#SVGID_00000182496278048498331790000017226896131050309775_);">
			<g>
				<g>
					<rect x="538.927" y="77.35" style="fill:#546CFF;" width="69.598" height="67.569"/>
					
						<line style="fill:none;stroke:#1D1141;stroke-width:1.5;stroke-linecap:round;stroke-linejoin:round;stroke-miterlimit:10;" x1="552.177" y1="77.35" x2="552.177" y2="144.35"/>
					
						<line style="fill:none;stroke:#1D1141;stroke-width:1.5;stroke-linecap:round;stroke-linejoin:round;stroke-miterlimit:10;" x1="552.177" y1="127.699" x2="538.927" y2="127.699"/>
				</g>
				<g>
					<rect x="560.736" y="62.308" style="fill:#D7A4FE;" width="69.598" height="82.61"/>
					
						<line style="fill:none;stroke:#1D1141;stroke-width:1.5;stroke-linecap:round;stroke-linejoin:round;stroke-miterlimit:10;" x1="580.639" y1="64.882" x2="580.639" y2="142.282"/>
					
						<line style="fill:none;stroke:#1D1141;stroke-width:1.5;stroke-linecap:round;stroke-linejoin:round;stroke-miterlimit:10;" x1="560.736" y1="86.059" x2="580.639" y2="86.059"/>
					
						<line style="fill:none;stroke:#1D1141;stroke-width:1.5;stroke-linecap:round;stroke-linejoin:round;stroke-miterlimit:10;" x1="560.736" y1="95.983" x2="580.639" y2="95.983"/>
				</g>
				<g>
					<rect x="585.073" y="77.35" style="fill:#FFCD01;" width="58.099" height="67.569"/>
					
						<line style="fill:none;stroke:#1D1141;stroke-width:1.5;stroke-linecap:round;stroke-linejoin:round;stroke-miterlimit:10;" x1="604.954" y1="79" x2="604.954" y2="144.35"/>
					
						<rect x="592.042" y="100.41" style="fill:none;stroke:#1D1141;stroke-width:1.5;stroke-linecap:round;stroke-linejoin:round;stroke-miterlimit:10;" width="4.565" height="36.197"/>
				</g>
				<g>
					<rect x="614.122" y="72.647" style="fill:#A77456;" width="58.099" height="72.271"/>
					
						<line style="fill:none;stroke:#1D1141;stroke-width:1.5;stroke-linecap:round;stroke-linejoin:round;stroke-miterlimit:10;" x1="621.599" y1="73.824" x2="621.599" y2="144.35"/>
				</g>
				<g>
					<rect x="691.65" y="62.308" style="fill:#D7A4FE;" width="66.232" height="84.199"/>
					
						<line style="fill:none;stroke:#1D1141;stroke-width:1.5;stroke-linecap:round;stroke-linejoin:round;stroke-miterlimit:10;" x1="708.647" y1="63.471" x2="708.647" y2="146.735"/>
					
						<rect x="696.882" y="77.35" style="fill:none;stroke:#1D1141;stroke-width:1.5;stroke-linecap:round;stroke-linejoin:round;stroke-miterlimit:10;" width="4.941" height="46.121"/>
				</g>
				<g>
					<rect x="717.894" y="79" style="fill:#FF692D;" width="51.293" height="67.507"/>
					
						<line style="fill:none;stroke:#1D1141;stroke-width:1.5;stroke-linecap:round;stroke-linejoin:round;stroke-miterlimit:10;" x1="735.063" y1="79" x2="735.063" y2="144.643"/>
					
						<line style="fill:none;stroke:#1D1141;stroke-width:1.5;stroke-linecap:round;stroke-linejoin:round;stroke-miterlimit:10;" x1="717.894" y1="92.647" x2="735.063" y2="92.647"/>
					
						<line style="fill:none;stroke:#1D1141;stroke-width:1.5;stroke-linecap:round;stroke-linejoin:round;stroke-miterlimit:10;" x1="717.894" y1="97.824" x2="735.063" y2="97.824"/>
					
						<line style="fill:none;stroke:#1D1141;stroke-width:1.5;stroke-linecap:round;stroke-linejoin:round;stroke-miterlimit:10;" x1="717.894" y1="102.296" x2="735.063" y2="102.296"/>
				</g>
			</g>
			<rect x="513.735" y="143.299" style="fill:#546CFF;" width="283.272" height="16"/>
		</g>
		<g style="clip-path:url(#SVGID_00000182496278048498331790000017226896131050309775_);">
			<g>
				<g>
					<polygon style="fill:#D7A4FE;" points="597.607,58.234 688.167,58.234 705.747,-39.941 615.187,-39.941 					"/>
					
						<line style="fill:none;stroke:#1D1141;stroke-width:1.5;stroke-linecap:round;stroke-linejoin:round;stroke-miterlimit:10;" x1="625.187" y1="-39.941" x2="607.607" y2="58.234"/>
				</g>
				<g>
					<rect x="628.122" y="-21.42" style="fill:#FFCD01;" width="90.56" height="79.655"/>
					
						<line style="fill:none;stroke:#1D1141;stroke-width:1.5;stroke-linecap:round;stroke-linejoin:round;stroke-miterlimit:10;" x1="646.059" y1="-20.294" x2="646.059" y2="51.235"/>
				</g>
				<g>
					<rect x="653.788" y="-13.943" style="fill:#546CFF;" width="90.56" height="72.178"/>
					
						<line style="fill:none;stroke:#1D1141;stroke-width:1.5;stroke-linecap:round;stroke-linejoin:round;stroke-miterlimit:10;" x1="672.222" y1="-13.943" x2="672.222" y2="51.235"/>
					
						<line style="fill:none;stroke:#1D1141;stroke-width:1.5;stroke-linecap:round;stroke-linejoin:round;stroke-miterlimit:10;" x1="655" y1="37.353" x2="672.222" y2="37.353"/>
					
						<line style="fill:none;stroke:#1D1141;stroke-width:1.5;stroke-linecap:round;stroke-linejoin:round;stroke-miterlimit:10;" x1="672.222" y1="30.059" x2="653.788" y2="30.059"/>
					
						<line style="fill:none;stroke:#1D1141;stroke-width:1.5;stroke-linecap:round;stroke-linejoin:round;stroke-miterlimit:10;" x1="653.788" y1="6.697" x2="672.222" y2="6.697"/>
				</g>
				<g>
					<rect x="682.542" y="-39.941" style="fill:#FF692D;" width="90.56" height="98.175"/>
					
						<line style="fill:none;stroke:#1D1141;stroke-width:1.5;stroke-linecap:round;stroke-linejoin:round;stroke-miterlimit:10;" x1="696.882" y1="-39.941" x2="696.882" y2="53.334"/>
				</g>
				<g>
					<rect x="704.631" y="-35.041" style="fill:#D7A4FE;" width="90.56" height="88.376"/>
					
						<line style="fill:none;stroke:#1D1141;stroke-width:1.5;stroke-linecap:round;stroke-linejoin:round;stroke-miterlimit:10;" x1="727.822" y1="-33.471" x2="727.822" y2="53.334"/>
					
						<line style="fill:none;stroke:#1D1141;stroke-width:1.5;stroke-linecap:round;stroke-linejoin:round;stroke-miterlimit:10;" x1="704.631" y1="19.941" x2="727.822" y2="19.941"/>
					
						<line style="fill:none;stroke:#1D1141;stroke-width:1.5;stroke-linecap:round;stroke-linejoin:round;stroke-miterlimit:10;" x1="704.631" y1="27.471" x2="727.822" y2="27.471"/>
				</g>
			</g>
			<rect x="546.063" y="48.615" style="fill:#546CFF;" width="254.284" height="16"/>
		</g>
	</g>
	<g>
		<defs>
			<rect id="SVGID_00000107566871571414575990000005299432620102539173_" y="274.403" width="371.941" height="225.597"/>
		</defs>
		<clipPath id="SVGID_00000026122206344748312620000006528727388081955483_">
			<use xlink:href="#SVGID_00000107566871571414575990000005299432620102539173_"  style="overflow:visible;"/>
		</clipPath>
		<g style="clip-path:url(#SVGID_00000026122206344748312620000006528727388081955483_);">
			<g>
				<g>
					<rect x="180.143" y="377.395" style="fill:#FF692D;" width="64.849" height="41.27"/>
					
						<path style="fill:none;stroke:#1D1141;stroke-width:1.5;stroke-linecap:round;stroke-linejoin:round;stroke-miterlimit:10;" d="
						M187.93,401.905c2.589,0.089,5.178,0.179,7.768,0.268"/>
					
						<path style="fill:none;stroke:#1D1141;stroke-width:1.5;stroke-linecap:round;stroke-linejoin:round;stroke-miterlimit:10;" d="
						M207.706,393.471c1.647,0,3.294,0,4.941,0"/>
					
						<path style="fill:none;stroke:#1D1141;stroke-width:1.5;stroke-linecap:round;stroke-linejoin:round;stroke-miterlimit:10;" d="
						M214.406,406.315c2.119,0.094,4.237,0.188,6.356,0.282"/>
					
						<path style="fill:none;stroke:#1D1141;stroke-width:1.5;stroke-linecap:round;stroke-linejoin:round;stroke-miterlimit:10;" d="
						M231,403c1.412,0,2.824,0,4.235,0"/>
				</g>
				<g>
					<g>
						<path style="fill:#546CFF;" d="M203.643,310.902c-5.453,4.633-9.071,12.176-7.007,19.028c1.272,4.223,4.527,7.644,8.319,9.897
							c3.792,2.254,8.108,3.459,12.417,4.401c7.433,1.625,15.14,2.537,22.65,1.322c7.511-1.216,14.852-4.744,19.544-10.734
							c4.692-5.989,6.3-14.604,2.982-21.451c-2.813-5.803-8.657-9.647-14.785-11.655
							C233.235,296.949,215.276,301.018,203.643,310.902z"/>
						
							<path style="fill:none;stroke:#1D1141;stroke-width:1.5;stroke-linecap:round;stroke-linejoin:round;stroke-miterlimit:10;" d="
							M232.734,316.38C212.561,331.754,204.515,352.177,207,377"/>
					</g>
					<g>
						<path style="fill:#546CFF;" d="M150.166,361.673c-6.446,7.82-8.515,19.942-2.521,28.114
							c5.292,7.215,15.192,9.527,24.116,8.879c9.502-0.69,19.039-4.354,25.481-11.374c6.442-7.02,9.258-17.634,5.754-26.494
							C193.696,337.286,162.329,346.917,150.166,361.673z"/>
						
							<path style="fill:none;stroke:#1D1141;stroke-width:1.5;stroke-linecap:round;stroke-linejoin:round;stroke-miterlimit:10;" d="
							M172.744,370.499c9.703-6.656,22.515-10.316,34.281-10.36"/>
					</g>
					<g>
						<path style="fill:#546CFF;" d="M213.536,378.962c0.53,6.885,5.891,12.643,12.117,15.629c6.226,2.986,13.26,3.707,20.132,4.384
							c6.854,0.675,13.708,1.351,20.562,2.026c4.754,0.468,9.974,0.821,13.873-1.939c2.997-2.122,4.632-5.817,4.854-9.482
							c0.222-3.666-0.829-7.308-2.346-10.652c-10.077-22.221-39.116-30.25-59.536-16.954
							C217.563,365.638,212.998,371.981,213.536,378.962z"/>
						
							<path style="fill:none;stroke:#1D1141;stroke-width:1.5;stroke-linecap:round;stroke-linejoin:round;stroke-miterlimit:10;" d="
							M260.398,377.674c-15.198-11.56-35.844-15.009-53.832-8.604"/>
					</g>
				</g>
			</g>
			<rect x="160.043" y="416.181" style="fill:#546CFF;" width="254.284" height="16"/>
		</g>
		<g style="clip-path:url(#SVGID_00000026122206344748312620000006528727388081955483_);">
			<g>
				<rect x="162.931" y="457.902" style="fill:#A77456;" width="101.124" height="148.717"/>
				
					<line style="fill:none;stroke:#1D1141;stroke-width:1.5;stroke-linecap:round;stroke-linejoin:round;stroke-miterlimit:10;" x1="182.118" y1="457.902" x2="182.118" y2="503.941"/>
			</g>
			<g>
				<rect x="205.385" y="446.082" style="fill:#FFCD01;" width="101.124" height="148.717"/>
				
					<line style="fill:none;stroke:#1D1141;stroke-width:1.5;stroke-linecap:round;stroke-linejoin:round;stroke-miterlimit:10;" x1="235.235" y1="446.082" x2="235.235" y2="505"/>
				
					<rect x="216.176" y="468.823" style="fill:none;stroke:#1D1141;stroke-width:1.5;stroke-linecap:round;stroke-linejoin:round;stroke-miterlimit:10;" width="7.941" height="7.941"/>
			</g>
		</g>
		<g style="clip-path:url(#SVGID_00000026122206344748312620000006528727388081955483_);">
			<path style="fill:#1D1141;" d="M110.26,436.3c-2.995,17.737-4.241,37.011-0.533,54.567c-8.726-34.31-22.138-66.037-40.249-95.011
				c-0.828,31.821,1.067,64.877,7.332,95.875c-12.738-50.418-26.857-100.422-39.594-150.84
				c-4.649,64.845,2.506,130.791,20.863,192.29l92.348,1.047C142.788,498.653,129.718,465.217,110.26,436.3z"/>
			<path style="fill:none;stroke:#FFFFFF;stroke-width:1.5;stroke-linecap:round;stroke-linejoin:round;stroke-miterlimit:10;" d="
				M53.471,443.294c4.679,25.895,9.358,51.79,14.038,77.685"/>
			<path style="fill:none;stroke:#FFFFFF;stroke-width:1.5;stroke-linecap:round;stroke-linejoin:round;stroke-miterlimit:10;" d="
				M86.356,453.186c5.11,22.775,10.219,45.549,15.329,68.324"/>
			<path style="fill:none;stroke:#FFFFFF;stroke-width:1.5;stroke-linecap:round;stroke-linejoin:round;stroke-miterlimit:10;" d="
				M118.808,467.262c4.624,18.389,9.247,36.779,13.871,55.168"/>
		</g>
	</g>
	<g>
		<defs>
			<rect id="SVGID_00000088130066036571400230000013719540069498162092_" width="264.302" height="242.529"/>
		</defs>
		<clipPath id="SVGID_00000158009445770539652710000016335350058181391013_">
			<use xlink:href="#SVGID_00000088130066036571400230000013719540069498162092_"  style="overflow:visible;"/>
		</clipPath>
		<g style="clip-path:url(#SVGID_00000158009445770539652710000016335350058181391013_);">
			<g>
				<g>
					<rect x="19.235" y="-2.723" style="fill:#D7A4FE;" width="99" height="115.364"/>
					
						<line style="fill:none;stroke:#1D1141;stroke-width:1.5;stroke-linecap:round;stroke-linejoin:round;stroke-miterlimit:10;" x1="35.473" y1="-2.723" x2="35.473" y2="104.765"/>
					
						<line style="fill:none;stroke:#1D1141;stroke-width:1.5;stroke-linecap:round;stroke-linejoin:round;stroke-miterlimit:10;" x1="35.473" y1="79.29" x2="19.235" y2="79.29"/>
					
						<line style="fill:none;stroke:#1D1141;stroke-width:1.5;stroke-linecap:round;stroke-linejoin:round;stroke-miterlimit:10;" x1="19.235" y1="88.074" x2="35.473" y2="88.074"/>
				</g>
				<g>
					<rect x="42.771" y="-15.083" style="fill:#FFCD01;" width="99" height="127.724"/>
					
						<line style="fill:none;stroke:#1D1141;stroke-width:1.5;stroke-linecap:round;stroke-linejoin:round;stroke-miterlimit:10;" x1="67.475" y1="-13.471" x2="67.475" y2="68.971"/>
					
						<line style="fill:none;stroke:#1D1141;stroke-width:1.5;stroke-linecap:round;stroke-linejoin:round;stroke-miterlimit:10;" x1="42.771" y1="17.588" x2="67.475" y2="17.588"/>
					
						<line style="fill:none;stroke:#1D1141;stroke-width:1.5;stroke-linecap:round;stroke-linejoin:round;stroke-miterlimit:10;" x1="67.475" y1="27.75" x2="42.771" y2="27.75"/>
				</g>
				<g>
					<rect x="84.385" y="14.716" style="fill:#A77456;" width="72.443" height="97.925"/>
					
						<line style="fill:none;stroke:#1D1141;stroke-width:1.5;stroke-linecap:round;stroke-linejoin:round;stroke-miterlimit:10;" x1="98.228" y1="14.716" x2="98.228" y2="25.353"/>
				</g>
				<g>
					<rect x="118.477" y="-10.334" style="fill:#546CFF;" width="85.962" height="122.975"/>
					
						<line style="fill:none;stroke:#1D1141;stroke-width:1.5;stroke-linecap:round;stroke-linejoin:round;stroke-miterlimit:10;" x1="149.471" y1="-8.529" x2="149.471" y2="104.126"/>
					
						<rect x="129.353" y="10.509" style="fill:none;stroke:#1D1141;stroke-width:1.5;stroke-linecap:round;stroke-linejoin:round;stroke-miterlimit:10;" width="8.118" height="64.962"/>
				</g>
			</g>
			<g>
				<g>
					<path style="fill:#1D1141;" d="M219.603,32.689c-7.867,10.706-14.233,22.548-17.62,35.395
						c1.036-11.734,0.37-23.616-1.971-35.161c-5.772,10.085-9.361,21.084-10.32,32.665c0.357-14.952-1.897-29.964-6.63-44.152
						c-5.783,14.959-8.504,32.035-6.424,47.938c-3.295-11.681-7.599-22.29-13.209-33.053c-0.907,18.361,2.145,36.908,8.887,54.011
						l37.092,0.29C216.649,72.279,220.055,52.405,219.603,32.689z"/>
					
						<path style="fill:none;stroke:#FFFFFF;stroke-width:1.5;stroke-linecap:round;stroke-linejoin:round;stroke-miterlimit:10;" d="
						M168.036,56.793c1.101,5.403,2.202,10.806,3.303,16.21"/>
					
						<path style="fill:none;stroke:#FFFFFF;stroke-width:1.5;stroke-linecap:round;stroke-linejoin:round;stroke-miterlimit:10;" d="
						M182.927,49.707c0.105,8,0.21,16,0.315,24"/>
					
						<path style="fill:none;stroke:#FFFFFF;stroke-width:1.5;stroke-linecap:round;stroke-linejoin:round;stroke-miterlimit:10;" d="
						M196.573,54.664c-0.694,6.825-1.388,13.65-2.082,20.474"/>
					
						<path style="fill:none;stroke:#FFFFFF;stroke-width:1.5;stroke-linecap:round;stroke-linejoin:round;stroke-miterlimit:10;" d="
						M213.21,54.953c-1.992,6.12-3.984,12.241-5.976,18.361"/>
				</g>
				<g>
					<rect x="161.458" y="73" style="fill:#FFCD01;" width="58.185" height="35.48"/>
					
						<line style="fill:none;stroke:#1D1141;stroke-width:1.5;stroke-linecap:round;stroke-linejoin:round;stroke-miterlimit:10;" x1="161.458" y1="85.201" x2="219.643" y2="85.201"/>
				</g>
			</g>
			<g>
				<g>
					<path style="fill:#FF692D;" d="M63.238,51.272L59,107.889h70.353l-4.238-56.617C122.249,12.994,66.104,12.994,63.238,51.272z"
						/>
					
						<path style="fill:none;stroke:#1D1141;stroke-width:1.5;stroke-linecap:round;stroke-linejoin:round;stroke-miterlimit:10;" d="
						M70.056,76.975c6.536,6.081,15.815,9.092,24.677,8.009c8.861-1.083,17.142-6.241,22.021-13.717"/>
					
						<path style="fill:none;stroke:#1D1141;stroke-width:1.5;stroke-linecap:round;stroke-linejoin:round;stroke-miterlimit:10;" d="
						M120.465,62.415c0.705,13.176,1.41,26.353,2.116,39.53"/>
				</g>
				<g>
					
						<ellipse transform="matrix(0.9732 -0.2298 0.2298 0.9732 -10.1793 22.4921)" style="fill:#FFFFFF;" cx="91.498" cy="54.959" rx="25.838" ry="25.838"/>
					
						<polyline style="fill:none;stroke:#1D1141;stroke-width:1.5;stroke-linecap:round;stroke-linejoin:round;stroke-miterlimit:10;" points="
						103.941,39.977 91.498,54.959 84.385,41.22 					"/>
				</g>
			</g>
			<rect x="-15.031" y="104.641" style="fill:#546CFF;" width="254.285" height="16"/>
		</g>
		<g style="clip-path:url(#SVGID_00000158009445770539652710000016335350058181391013_);">
			<g>
				<g>
					<rect x="-2.273" y="118.802" style="fill:#FFCD01;" width="91.8" height="92.897"/>
					
						<line style="fill:none;stroke:#1D1141;stroke-width:1.5;stroke-linecap:round;stroke-linejoin:round;stroke-miterlimit:10;" x1="23.878" y1="120.647" x2="23.878" y2="209.802"/>
					
						<rect x="7.786" y="134.81" style="fill:none;stroke:#1D1141;stroke-width:1.5;stroke-linecap:round;stroke-linejoin:round;stroke-miterlimit:10;" width="5.294" height="54.661"/>
				</g>
				<g>
					<rect x="40.429" y="138.41" style="fill:#FF692D;" width="73.29" height="73.29"/>
					
						<line style="fill:none;stroke:#1D1141;stroke-width:1.5;stroke-linecap:round;stroke-linejoin:round;stroke-miterlimit:10;" x1="51" y1="138.41" x2="51" y2="207.434"/>
				</g>
				<g>
					<rect x="58.081" y="132.206" style="fill:#D7A4FE;" width="62.526" height="79.494"/>
					
						<line style="fill:none;stroke:#1D1141;stroke-width:1.5;stroke-linecap:round;stroke-linejoin:round;stroke-miterlimit:10;" x1="74.28" y1="132.206" x2="74.28" y2="207.434"/>
					
						<rect x="63.324" y="158.059" style="fill:none;stroke:#1D1141;stroke-width:1.5;stroke-linecap:round;stroke-linejoin:round;stroke-miterlimit:10;" width="5.412" height="39.176"/>
				</g>
				<g>
					<polygon style="fill:#546CFF;" points="104.474,204.105 153.509,204.105 147.264,141.01 98.228,141.01 					"/>
					
						<line style="fill:none;stroke:#1D1141;stroke-width:1.5;stroke-linecap:round;stroke-linejoin:round;stroke-miterlimit:10;" x1="108.228" y1="141.01" x2="114.474" y2="204.105"/>
					
						<line style="fill:none;stroke:#1D1141;stroke-width:1.5;stroke-linecap:round;stroke-linejoin:round;stroke-miterlimit:10;" x1="109.411" y1="152.96" x2="99.461" y2="152.96"/>
					
						<line style="fill:none;stroke:#1D1141;stroke-width:1.5;stroke-linecap:round;stroke-linejoin:round;stroke-miterlimit:10;" x1="110.198" y1="160.905" x2="100.299" y2="160.905"/>
				</g>
			</g>
			<rect x="-17.706" y="202.349" style="fill:#546CFF;" width="188.476" height="16"/>
		</g>
	</g>
	<g>
		<defs>
			<rect id="SVGID_00000119115724788619278470000017141139425124967863_" x="223.174" y="19" width="562.31" height="481"/>
		</defs>
		<clipPath id="SVGID_00000104671987846916476200000002896820917745260219_">
			<use xlink:href="#SVGID_00000119115724788619278470000017141139425124967863_"  style="overflow:visible;"/>
		</clipPath>
		<path style="clip-path:url(#SVGID_00000104671987846916476200000002896820917745260219_);fill:#1D1141;" d="M600.835,301.947
			c3.876-14.884,0.704-30.399-8.702-42.568c-9.406-12.168-23.621-19.147-39-19.147H386.901l-30.487,117.076
			c-1.502,1.15-2.475,2.957-2.475,4.995c0,0.891,0.188,1.738,0.522,2.506L254.336,749.315c-0.876,3.364,1.141,6.801,4.505,7.677
			c3.366,0.88,6.801-1.141,7.677-4.505l74.987-287.967h203.988l-74.161,284.795c-0.876,3.364,1.141,6.801,4.505,7.677
			c0.532,0.139,1.065,0.204,1.59,0.204c2.796,0,5.349-1.878,6.087-4.71l75.951-291.67c0.288-0.637,0.474-1.328,0.536-2.057
			L600.835,301.947z M396.631,252.821h156.502c11.452,0,22.036,5.196,29.04,14.257c7.003,9.061,9.366,20.614,6.48,31.697
			l-14.904,57.234H369.761L396.631,252.821z M344.783,451.931l21.7-83.334h203.988l-21.7,83.334H344.783z"/>
		<g style="clip-path:url(#SVGID_00000104671987846916476200000002896820917745260219_);">
			<g>
				<g>
					<path style="fill:#FFC9B1;" d="M494.123,200.756c0.858-0.664,1.741-1.325,2.544-1.994c-1.539-1.227-3.078-2.453-4.617-3.679
						c-0.881-2.033-1.891-4.02-3.071-6.017c-1.992-3.368-5.588-5.738-9.469-6.239c-6.014,9.218-14.405,16.43-23.942,21.924
						c-2.303,9.556-4.525,18.598-6.827,28.154l25.917,6.024c2.549-5.928,5.057-11.692,7.606-17.62
						c4.418-0.576,8.811-2.554,11.482-6.121c2.67-3.566,2.085-8.054,0.961-12.365C494.524,202.122,494.328,201.435,494.123,200.756z
						"/>
					<circle style="fill:#1D1141;" cx="489.387" cy="197.71" r="1.5"/>
					
						<path style="fill:none;stroke:#1D1141;stroke-width:1.5;stroke-linecap:round;stroke-linejoin:round;stroke-miterlimit:10;" d="
						M484.507,193.494c0.068-1.091,0.669-2.137,1.579-2.744c0.91-0.606,2.107-0.76,3.14-0.403"/>
					
						<path style="fill:none;stroke:#1D1141;stroke-width:1.5;stroke-linecap:round;stroke-linejoin:round;stroke-miterlimit:10;" d="
						M493.518,205.341c0.494,0,0.987,0,1.481,0"/>
				</g>
				<path style="fill:#FF692D;" d="M474.367,212.5l1.298,28.117c0,0-25.77-7.809-25.77-7.405s14.008-22.333,14.008-22.333
					L474.367,212.5z"/>
			</g>
			<g>
				<path style="fill:#D7A4FE;" d="M437.078,225.028c-64.87-9.454-94.126,0.327-122.852,12.94
					c-28.726,12.612-45.556,52.159-25.783,84.42c19.773,32.261,48.51,66.602,48.51,66.602L437.078,225.028z"/>
				<path style="fill:none;stroke:#1D1141;stroke-width:1.5;stroke-linecap:round;stroke-linejoin:round;stroke-miterlimit:10;" d="
					M344.982,276.355c7.043,3.454,13.733,7.629,19.93,12.439"/>
				<path style="fill:none;stroke:#1D1141;stroke-width:1.5;stroke-linecap:round;stroke-linejoin:round;stroke-miterlimit:10;" d="
					M286.589,273.334c5.719-0.529,11.082-4.02,13.881-9.035c2.799-5.015,2.954-11.412,0.402-16.557"/>
			</g>
			<g>
				<path style="fill:#546CFF;" d="M314.604,366.594c0,0-44.782,54.759-54.177,146.02l288.623-2.448L502.453,398.59v-25.589
					L314.604,366.594z"/>
				
					<line style="fill:none;stroke:#1D1141;stroke-width:1.5;stroke-linecap:round;stroke-linejoin:round;stroke-miterlimit:10;" x1="368.025" y1="458.515" x2="389.616" y2="519.321"/>
				<path style="fill:none;stroke:#1D1141;stroke-width:1.5;stroke-linecap:round;stroke-linejoin:round;stroke-miterlimit:10;" d="
					M297.231,395.713c7.985,3.577,15.97,7.154,23.956,10.732c-6.768,13.312-15.517,26.289-22.286,39.601
					c-4.524,8.897-14.978,11.79-24.609,14.41"/>
				<path style="fill:none;stroke:#1D1141;stroke-width:1.5;stroke-linecap:round;stroke-linejoin:round;stroke-miterlimit:10;" d="
					M471.378,461.233c-2.607-15.841-5.013-32.25-7.62-48.092c-23.324,1.175-46.647,2.35-69.971,3.524
					c2.345,17.053,5.166,33.9,7.51,50.953c9.702,8.331,24.207,12.3,36.982,11.701C451.054,478.72,462.498,470.435,471.378,461.233z"
					/>
				<path style="fill:none;stroke:#1D1141;stroke-width:1.5;stroke-linecap:round;stroke-linejoin:round;stroke-miterlimit:10;" d="
					M482.353,397.994c10.924,37.655,21.847,75.31,32.771,112.965"/>
				<path style="fill:none;stroke:#1D1141;stroke-width:1.5;stroke-linecap:round;stroke-linejoin:round;stroke-miterlimit:10;" d="
					M497.707,450.395c6.459-10.137,10.248-21.958,10.885-33.961"/>
				
					<line style="fill:none;stroke:#1D1141;stroke-width:1.5;stroke-linecap:round;stroke-linejoin:round;stroke-miterlimit:10;" x1="372.922" y1="472.308" x2="366.822" y2="510.959"/>
			</g>
			<g>
				<path style="fill:#FFCD01;" d="M497.097,234.141l-60.019-9.114c0,0-29.689,0.693-54.031,36.223
					c-24.343,35.529-73.125,109.534-73.125,109.534l195.39,25.746l5.558-116.151L497.097,234.141z"/>
				
					<line style="fill:none;stroke:#1D1141;stroke-width:1.5;stroke-linecap:round;stroke-linejoin:round;stroke-miterlimit:10;" x1="324.639" y1="350.209" x2="505.214" y2="372.629"/>
				
					<line style="fill:none;stroke:#1D1141;stroke-width:1.5;stroke-linecap:round;stroke-linejoin:round;stroke-miterlimit:10;" x1="493.518" y1="296.572" x2="485.543" y2="370.187"/>
				
					<line style="fill:none;stroke:#1D1141;stroke-width:1.5;stroke-linecap:round;stroke-linejoin:round;stroke-miterlimit:10;" x1="338.866" y1="351.975" x2="331.816" y2="370.387"/>
				
					<line style="fill:none;stroke:#1D1141;stroke-width:1.5;stroke-linecap:round;stroke-linejoin:round;stroke-miterlimit:10;" x1="349.782" y1="353.331" x2="341.492" y2="373.001"/>
				
					<line style="fill:none;stroke:#1D1141;stroke-width:1.5;stroke-linecap:round;stroke-linejoin:round;stroke-miterlimit:10;" x1="387.623" y1="358.029" x2="381.902" y2="376.603"/>
				
					<line style="fill:none;stroke:#1D1141;stroke-width:1.5;stroke-linecap:round;stroke-linejoin:round;stroke-miterlimit:10;" x1="416.974" y1="362.303" x2="411.522" y2="381.157"/>
				
					<line style="fill:none;stroke:#1D1141;stroke-width:1.5;stroke-linecap:round;stroke-linejoin:round;stroke-miterlimit:10;" x1="432.583" y1="363.611" x2="425.233" y2="382.551"/>
				
					<line style="fill:none;stroke:#1D1141;stroke-width:1.5;stroke-linecap:round;stroke-linejoin:round;stroke-miterlimit:10;" x1="454.658" y1="366.352" x2="449.895" y2="384.43"/>
				
					<line style="fill:none;stroke:#1D1141;stroke-width:1.5;stroke-linecap:round;stroke-linejoin:round;stroke-miterlimit:10;" x1="465.359" y1="367.681" x2="462.78" y2="387.069"/>
				
					<line style="fill:none;stroke:#1D1141;stroke-width:1.5;stroke-linecap:round;stroke-linejoin:round;stroke-miterlimit:10;" x1="497.707" y1="371.73" x2="496.667" y2="391.413"/>
			</g>
			<g>
				<path style="fill:#FFC9B1;" d="M649.222,83.576c-5.986,8.605-11.689,17.239-17.978,25.625
					c-3.078,4.104-4.405,9.478-3.592,14.544l28.716-18.868C654.042,97.769,651.549,90.684,649.222,83.576z"/>
				<g>
					<polygon style="fill:#1D1141;" points="733.235,129.258 652.669,129.258 642.884,37.889 723.451,37.889 					"/>
					
						<polygon style="fill:none;stroke:#FFFFFF;stroke-width:1.5;stroke-linecap:round;stroke-linejoin:round;stroke-miterlimit:10;" points="
						703.693,79 686.051,79 683.908,58.992 701.55,58.992 					"/>
					
						<line style="fill:none;stroke:#FFFFFF;stroke-width:1.5;stroke-linecap:round;stroke-linejoin:round;stroke-miterlimit:10;" x1="655.778" y1="37.889" x2="665.563" y2="129.258"/>
					
						<line style="fill:none;stroke:#FFFFFF;stroke-width:1.5;stroke-linecap:round;stroke-linejoin:round;stroke-miterlimit:10;" x1="645.84" y1="59.653" x2="657.646" y2="59.653"/>
					
						<line style="fill:none;stroke:#FFFFFF;stroke-width:1.5;stroke-linecap:round;stroke-linejoin:round;stroke-miterlimit:10;" x1="659.141" y1="69.293" x2="646.398" y2="69.293"/>
				</g>
				<g>
					<path style="fill:#FFC9B1;" d="M687.443,96.582c-2.384,2.065-4.696,4.088-7.081,6.152c1.735-5.629,3.723-11.364,5.458-16.993
						c-0.426-0.395-1.081-0.523-1.625-0.319c-0.544,0.204-0.581,0.632-0.922,1.104c-2.061,2.857-4.123,5.713-6.184,8.57
						c2.17-4.365,4.712-8.48,7.524-12.461c-1.035-0.864-2.216-0.384-3.247,0.484c-3.111,2.618-6.222,5.237-9.333,7.855
						c2.739-3.041,5.578-6.161,8.317-9.202c-0.604-1.001-1.952-0.986-2.994-0.458c-11.117,5.631-21.684,12.35-31.499,20.029
						c-13.158,10.294-22.067,25.494-31.535,39.258l40.947,17.989c8.534-15.095,17.277-29.681,25.324-45.042
						c2.99-5.708,6.099-11.281,9.09-16.99C689.008,95.905,688.153,95.968,687.443,96.582z"/>
					
						<path style="fill:none;stroke:#1D1141;stroke-width:1.5;stroke-linecap:round;stroke-linejoin:round;stroke-miterlimit:10;" d="
						M644.27,102.15c1.741-1.358,3.483-2.716,5.224-4.074"/>
					
						<path style="fill:none;stroke:#1D1141;stroke-width:1.5;stroke-linecap:round;stroke-linejoin:round;stroke-miterlimit:10;" d="
						M674.373,88.369c-3.952,4.441-7.904,8.882-11.856,13.322"/>
					
						<path style="fill:none;stroke:#1D1141;stroke-width:1.5;stroke-linecap:round;stroke-linejoin:round;stroke-miterlimit:10;" d="
						M669.415,107.441c3.429-5.609,6.858-11.218,10.288-16.826"/>
					
						<path style="fill:none;stroke:#1D1141;stroke-width:1.5;stroke-linecap:round;stroke-linejoin:round;stroke-miterlimit:10;" d="
						M681.06,101.395c-1.437,3.635-2.875,7.269-4.312,10.904"/>
				</g>
			</g>
			<g>
				<path style="fill:#FF692D;" d="M482.751,178.951c-6.713-3.062-15.191-2.869-22.095-0.265
					c-6.904,2.603-12.688,8.045-15.707,14.777c-1.484,3.309-2.357,6.959-4.564,9.838c-2.783,3.63-7.278,5.494-11.69,6.7
					c-4.412,1.206-9.012,1.934-13.096,3.992c-4.085,2.058-7.69,5.846-7.937,10.413l21.762,10.938
					c3.095-3.379,7.214-5.823,11.69-6.824c-3.618,1.777-6.508,4.934-8.072,8.642l9.263,4.656c1.101-3.128,4.073-5.219,7.115-6.54
					c3.042-1.321,6.324-2.092,9.221-3.705c4.498-2.504,7.805-7.051,8.803-12.101c0.998-5.051,0.445-10.787-2.762-14.815
					c6.943-4.401,13.686-9.727,17.075-17.215C482.949,184.805,483.302,181.794,482.751,178.951z"/>
				<g>
					<path style="fill:#FFC9B1;" d="M472.666,200.725c-1.538-0.696-3.076-1.392-4.614-2.088c-4.527,0.271-9.055,3.635-9.586,8.138
						c-0.531,4.504,2.521,9.169,6.86,10.486c4.339,1.317,9.469-0.864,11.531-4.903L472.666,200.725z"/>
					
						<path style="fill:none;stroke:#1D1141;stroke-width:1.5;stroke-linecap:round;stroke-linejoin:round;stroke-miterlimit:10;" d="
						M464.84,207.367c2.065-0.12,4.131-0.24,6.196-0.36"/>
				</g>
			</g>
			<g>
				<path style="fill:#D7A4FE;" d="M619.488,126.699l43.738,28.071c0,0-34.717,55.882-60.743,80.626
					c-26.027,24.743-67.687,53.885-92.401,61.457c-43.139,2.54-55.424-37.536-34.16-64.676
					c27.186-13.334,87.612-48.594,87.612-48.594L619.488,126.699z"/>
				
					<line style="fill:none;stroke:#1D1141;stroke-width:1.5;stroke-linecap:round;stroke-linejoin:round;stroke-miterlimit:10;" x1="604.968" y1="141.46" x2="652.001" y2="172.066"/>
				
					<line style="fill:none;stroke:#1D1141;stroke-width:1.5;stroke-linecap:round;stroke-linejoin:round;stroke-miterlimit:10;" x1="614.321" y1="146.369" x2="625.084" y2="135.067"/>
				
					<line style="fill:none;stroke:#1D1141;stroke-width:1.5;stroke-linecap:round;stroke-linejoin:round;stroke-miterlimit:10;" x1="622.112" y1="152.268" x2="632.744" y2="139.508"/>
				
					<line style="fill:none;stroke:#1D1141;stroke-width:1.5;stroke-linecap:round;stroke-linejoin:round;stroke-miterlimit:10;" x1="638.85" y1="163.508" x2="652.696" y2="150.616"/>
				
					<line style="fill:none;stroke:#1D1141;stroke-width:1.5;stroke-linecap:round;stroke-linejoin:round;stroke-miterlimit:10;" x1="656.368" y1="154.771" x2="647.315" y2="169.016"/>
				<path style="fill:none;stroke:#1D1141;stroke-width:1.5;stroke-linecap:round;stroke-linejoin:round;stroke-miterlimit:10;" d="
					M614.916,217.2c-8.939-6.034-22.118-4.691-29.655,3.023c-7.537,7.714-8.574,20.921-2.334,29.717"/>
			</g>
		</g>
	</g>
</g>
</svg>
